<svg width="159" height="31" viewBox="0 0 159 31" fill="none" xmlns="http://www.w3.org/2000/svg">
<path d="M0.83 0.699998H6.77C8.81 0.699998 10.4 0.969998 11.54 1.51C12.7 2.03 13.52 2.84 14 3.94C14.5 5.04 14.75 6.5 14.75 8.32V17.17C14.75 19.03 14.51 20.53 14.03 21.67C13.55 22.79 12.74 23.63 11.6 24.19C10.46 24.73 8.89 25 6.89 25H0.83V0.699998ZM6.83 21.55C7.69 21.55 8.32 21.42 8.72 21.16C9.14 20.88 9.4 20.48 9.5 19.96C9.62 19.44 9.68 18.69 9.68 17.71V7.66C9.68 6.74 9.61 6.05 9.47 5.59C9.35 5.11 9.09 4.76 8.69 4.54C8.29 4.3 7.66 4.18 6.8 4.18H5.75V21.55H6.83ZM17.7873 1.42H22.3473V4.81H17.7873V1.42ZM17.8173 7.66H22.3473V25H17.8173V7.66ZM30.5316 25.3C29.0316 25.3 27.7916 24.94 26.8116 24.22C25.8316 23.48 25.0816 22.35 24.5616 20.83L27.7416 19.51C28.3416 21.29 29.1916 22.18 30.2916 22.18C30.7116 22.18 31.0216 22.09 31.2216 21.91C31.4416 21.71 31.5516 21.44 31.5516 21.1C31.5516 20.64 31.4016 20.23 31.1016 19.87C30.8216 19.51 30.2516 18.96 29.3916 18.22L27.7716 16.84C26.8116 16.02 26.1016 15.26 25.6416 14.56C25.1816 13.86 24.9516 13.02 24.9516 12.04C24.9516 11.12 25.1816 10.31 25.6416 9.61C26.1016 8.89 26.7216 8.34 27.5016 7.96C28.3016 7.56 29.1716 7.36 30.1116 7.36C31.5116 7.36 32.6616 7.76 33.5616 8.56C34.4816 9.34 35.1116 10.44 35.4516 11.86L32.5116 13.18C32.3316 12.46 32.0416 11.85 31.6416 11.35C31.2416 10.83 30.7716 10.57 30.2316 10.57C29.8716 10.57 29.5816 10.68 29.3616 10.9C29.1416 11.1 29.0316 11.37 29.0316 11.71C29.0316 12.05 29.2016 12.42 29.5416 12.82C29.8816 13.2 30.4116 13.7 31.1316 14.32L32.7516 15.76C33.6916 16.56 34.4216 17.33 34.9416 18.07C35.4816 18.81 35.7516 19.67 35.7516 20.65C35.7516 21.61 35.5116 22.44 35.0316 23.14C34.5716 23.84 33.9416 24.38 33.1416 24.76C32.3416 25.12 31.4716 25.3 30.5316 25.3ZM37.8842 7.66H42.3842V8.95C43.5442 7.89 44.7742 7.36 46.0742 7.36C47.3742 7.38 48.3242 7.91 48.9242 8.95C49.5242 9.99 49.8242 11.27 49.8242 12.79V19.57C49.8242 21.29 49.4942 22.68 48.8342 23.74C48.1742 24.78 47.2042 25.3 45.9242 25.3C44.7842 25.3 43.6042 24.76 42.3842 23.68V30.7H37.8842V7.66ZM43.9142 22.27C44.8342 22.27 45.2942 21.43 45.2942 19.75V12.49C45.2942 10.97 44.8442 10.21 43.9442 10.21C43.4642 10.21 42.9442 10.43 42.3842 10.87V21.76C42.9242 22.1 43.4342 22.27 43.9142 22.27ZM52.8598 0.699998H57.3598V25H52.8598V0.699998ZM64.04 25.3C63.24 25.3 62.54 25.1 61.94 24.7C61.34 24.3 60.88 23.78 60.56 23.14C60.26 22.48 60.11 21.8 60.11 21.1C60.11 19.76 60.44 18.66 61.1 17.8C61.76 16.94 62.55 16.27 63.47 15.79C64.41 15.31 65.65 14.79 67.19 14.23V12.61C67.19 11.99 67.1 11.52 66.92 11.2C66.76 10.88 66.46 10.72 66.02 10.72C65.58 10.72 65.27 10.86 65.09 11.14C64.91 11.42 64.8 11.82 64.76 12.34L64.67 13.54L60.41 13.36C60.49 11.3 61.02 9.79 62 8.83C62.98 7.85 64.45 7.36 66.41 7.36C68.11 7.36 69.39 7.83 70.25 8.77C71.11 9.71 71.54 11 71.54 12.64V20.71C71.54 22.07 71.64 23.5 71.84 25H67.79C67.71 24.42 67.58 23.59 67.4 22.51C67.16 23.31 66.75 23.98 66.17 24.52C65.61 25.04 64.9 25.3 64.04 25.3ZM65.66 22.09C65.96 22.09 66.24 21.99 66.5 21.79C66.78 21.59 67.01 21.36 67.19 21.1V16.33C66.25 16.87 65.53 17.43 65.03 18.01C64.53 18.59 64.28 19.3 64.28 20.14C64.28 20.76 64.4 21.24 64.64 21.58C64.88 21.92 65.22 22.09 65.66 22.09ZM74.8346 26.71C75.8546 26.71 76.5846 26.6 77.0246 26.38C77.4846 26.18 77.7146 25.81 77.7146 25.27C77.7146 25.01 77.6446 24.6 77.5046 24.04C77.3846 23.48 77.2446 22.9 77.0846 22.3L73.1246 7.66H77.4446L79.6346 18.31L81.4346 7.66H85.7546L81.7346 25.54C81.3746 27.14 80.7046 28.26 79.7246 28.9C78.7446 29.56 77.4346 29.89 75.7946 29.89H74.8346V26.71ZM95.371 0.699998H98.821L104.221 13.33V0.699998H108.331V25H105.001L99.601 11.56V25H95.371V0.699998ZM115.192 25.3C114.392 25.3 113.692 25.1 113.092 24.7C112.492 24.3 112.032 23.78 111.712 23.14C111.412 22.48 111.262 21.8 111.262 21.1C111.262 19.76 111.592 18.66 112.252 17.8C112.912 16.94 113.702 16.27 114.622 15.79C115.562 15.31 116.802 14.79 118.342 14.23V12.61C118.342 11.99 118.252 11.52 118.072 11.2C117.912 10.88 117.612 10.72 117.172 10.72C116.732 10.72 116.422 10.86 116.242 11.14C116.062 11.42 115.952 11.82 115.912 12.34L115.822 13.54L111.562 13.36C111.642 11.3 112.172 9.79 113.152 8.83C114.132 7.85 115.602 7.36 117.562 7.36C119.262 7.36 120.542 7.83 121.402 8.77C122.262 9.71 122.692 11 122.692 12.64V20.71C122.692 22.07 122.792 23.5 122.992 25H118.942C118.862 24.42 118.732 23.59 118.552 22.51C118.312 23.31 117.902 23.98 117.322 24.52C116.762 25.04 116.052 25.3 115.192 25.3ZM116.812 22.09C117.112 22.09 117.392 21.99 117.652 21.79C117.932 21.59 118.162 21.36 118.342 21.1V16.33C117.402 16.87 116.682 17.43 116.182 18.01C115.682 18.59 115.432 19.3 115.432 20.14C115.432 20.76 115.552 21.24 115.792 21.58C116.032 21.92 116.372 22.09 116.812 22.09ZM125.687 7.66H130.097V9.1C131.257 7.92 132.617 7.33 134.177 7.33C134.857 7.33 135.447 7.51 135.947 7.87C136.467 8.21 136.857 8.73 137.117 9.43C138.357 8.03 139.827 7.33 141.527 7.33C142.527 7.33 143.317 7.7 143.897 8.44C144.497 9.16 144.797 10.18 144.797 11.5V25H140.417V11.95C140.417 11.39 140.317 11 140.117 10.78C139.937 10.54 139.657 10.42 139.277 10.42C139.017 10.42 138.717 10.49 138.377 10.63C138.057 10.77 137.747 10.97 137.447 11.23V11.5V25H133.067V11.95C133.067 11.39 132.967 11 132.767 10.78C132.587 10.54 132.307 10.42 131.927 10.42C131.667 10.42 131.367 10.49 131.027 10.63C130.707 10.77 130.397 10.97 130.097 11.23V25H125.687V7.66ZM153.266 25.3C151.366 25.3 149.916 24.78 148.916 23.74C147.936 22.7 147.446 21.2 147.446 19.24V13.42C147.446 11.46 147.946 9.96 148.946 8.92C149.946 7.88 151.386 7.36 153.266 7.36C155.206 7.36 156.626 7.88 157.526 8.92C158.426 9.96 158.876 11.5 158.876 13.54V16.57H151.946V19.93C151.946 20.67 152.056 21.21 152.276 21.55C152.516 21.89 152.856 22.06 153.296 22.06C154.196 22.06 154.646 21.41 154.646 20.11V18.43H158.846V19.93C158.846 21.67 158.366 23 157.406 23.92C156.446 24.84 155.066 25.3 153.266 25.3ZM154.646 14.41V12.73C154.646 11.97 154.536 11.43 154.316 11.11C154.096 10.77 153.746 10.6 153.266 10.6C152.806 10.6 152.466 10.78 152.246 11.14C152.046 11.5 151.946 12.14 151.946 13.06V14.41H154.646Z" fill="#A276FF"/>
</svg>
