<svg width="1560" height="1432" viewBox="0 0 1560 1432" fill="none" xmlns="http://www.w3.org/2000/svg">
<g filter="url(#filter0_bd_4_38)">
<path d="M4 41C4 18.3563 22.3563 0 45 0H1515C1537.64 0 1556 18.3563 1556 41V1383C1556 1405.64 1537.64 1424 1515 1424H45C22.3564 1424 4 1405.64 4 1383V41Z" fill="white" fill-opacity="0.85"/>
<path d="M45 1H1515C1537.09 1 1555 18.9086 1555 41V1383C1555 1405.09 1537.09 1423 1515 1423H45C22.9087 1423 5 1405.09 5 1383V41C5 18.9086 22.9086 1 45 1Z" stroke="white" stroke-width="2"/>
</g>
<defs>
<filter id="filter0_bd_4_38" x="-26" y="-30" width="1612" height="1484" filterUnits="userSpaceOnUse" color-interpolation-filters="sRGB">
<feFlood flood-opacity="0" result="BackgroundImageFix"/>
<feGaussianBlur in="BackgroundImage" stdDeviation="15"/>
<feComposite in2="SourceAlpha" operator="in" result="effect1_backgroundBlur_4_38"/>
<feColorMatrix in="SourceAlpha" type="matrix" values="0 0 0 0 0 0 0 0 0 0 0 0 0 0 0 0 0 0 127 0" result="hardAlpha"/>
<feOffset dy="4"/>
<feGaussianBlur stdDeviation="2"/>
<feColorMatrix type="matrix" values="0 0 0 0 0 0 0 0 0 0 0 0 0 0 0 0 0 0 0.25 0"/>
<feBlend mode="normal" in2="effect1_backgroundBlur_4_38" result="effect2_dropShadow_4_38"/>
<feBlend mode="normal" in="SourceGraphic" in2="effect2_dropShadow_4_38" result="shape"/>
</filter>
</defs>
</svg>
